# xmcd
#
# Track frame offsets:
#	150
#	19121
#	45561
#	63782
#	83437
#	126049
#	148745
#	174403
#	207460
#
# Disc length: 3283 seconds
#
# Revision: 0
# Processed by: cddbd v1.5.2PL0 Copyright (c) Steve Scherf et al.
# Submitted via: EZCDAudioConverter 2.1.7.1
#
DISCID=710cd109
DTITLE=Spooky Tooth - Live In Oldenburg (1973)
DYEAR=1900
DGENRE=
TTITLE0=Waitin' For The Wind
TTITLE1=I Am The Walrus
TTITLE2=The Wrong Time
TTITLE3=Cotton Growing Man
TTITLE4=Old As I Was Born
TTITLE5=Better By You, Better Than Me
TTITLE6=Tobacco Road
TTITLE7=Evil Woman
TTITLE8=Sunshine Help Me
EXTD=
EXTT0=
EXTT1=
EXTT2=
EXTT3=
EXTT4=
EXTT5=
EXTT6=
EXTT7=
EXTT8=
PLAYORDER=
